<svg width="1777" height="1777" viewBox="0 0 1777 1777" fill="none"
  xmlns="http://www.w3.org/2000/svg">
  <path
    d="M888.5 0C1379.2 0 1777 397.795 1777 888.5C1777 1379.2 1379.2 1777 888.5 1777C397.795 1777 0 1379.2 0 888.5C0 397.795 397.795 0 888.5 0ZM888.5 160.331C486.343 160.331 160.331 486.343 160.331 888.5C160.331 1290.66 486.343 1616.67 888.5 1616.67C1130.9 1616.67 1345.64 1498.22 1477.99 1316.05H1201.39C1185.53 1355.22 1147.13 1382.85 1102.27 1382.85C1043.24 1382.85 995.387 1335 995.387 1275.97C995.387 1216.93 1043.24 1169.08 1102.27 1169.08C1147.13 1169.08 1185.53 1196.71 1201.39 1235.88H1528.62C1562.3 1173.96 1587.25 1106.6 1601.83 1035.47H941.944L939.882 1035.42C918.703 1034.34 901.861 1016.83 901.861 995.387V900.758C862.691 884.901 835.056 846.51 835.056 801.654C835.056 742.622 882.911 694.767 941.944 694.767C1000.98 694.767 1048.83 742.622 1048.83 801.654C1048.83 846.51 1021.2 884.901 982.026 900.758V955.305H1164.58C1164.61 955.23 1164.64 955.15 1164.68 955.076L1265.78 751.883C1255.31 735.36 1249.24 715.773 1249.24 694.767C1249.24 635.735 1297.1 587.88 1356.13 587.88C1400.99 587.88 1439.39 615.514 1455.24 654.684H1578.32C1557.28 592.605 1528.1 534.284 1492.05 480.992H1047.73C1031.88 520.163 993.481 547.797 948.624 547.797C889.592 547.797 841.737 499.942 841.737 440.91C841.737 381.878 889.592 334.023 948.624 334.023C993.481 334.023 1031.88 361.656 1047.73 400.827H1429.24C1295.97 253.153 1103.08 160.331 888.5 160.331ZM734.85 394.147C756.987 394.147 774.932 412.092 774.932 434.229V1369.49C774.932 1391.63 756.987 1409.58 734.85 1409.58C712.713 1409.58 694.767 1391.63 694.767 1369.49V474.312H654.352L460.951 613.049V654.684H567.838C589.975 654.684 607.921 672.63 607.921 694.767V1369.49C607.921 1391.63 589.975 1409.58 567.838 1409.58C545.701 1409.58 527.756 1391.63 527.756 1369.49V1195.8H463.561C449.698 1219.76 423.814 1235.88 394.147 1235.88C349.872 1235.88 313.981 1199.99 313.981 1155.72C313.981 1111.44 349.872 1075.55 394.147 1075.55C423.814 1075.55 449.698 1091.68 463.561 1115.64H527.756V961.985H408.356C392.184 989.94 361.96 1008.75 327.342 1008.75C275.689 1008.75 233.816 966.875 233.816 915.222C233.816 863.569 275.689 821.695 327.342 821.695C367.226 821.695 401.276 846.663 414.723 881.82H527.756V734.85H420.868C398.731 734.85 380.786 716.904 380.786 694.767C380.786 694.542 380.795 694.318 380.799 694.095C380.795 693.874 380.786 693.651 380.786 693.43V593.223C380.786 583.656 384.137 574.873 389.73 567.982C392.186 564.604 395.213 561.553 398.792 558.985L616.004 403.156C622.907 397.525 631.72 394.147 641.323 394.147H734.85ZM1455.24 734.85C1439.39 774.02 1400.99 801.654 1356.13 801.654C1347.8 801.654 1339.7 800.696 1331.92 798.895L1254.1 955.305H1613.64C1615.64 933.304 1616.67 911.022 1616.67 888.5C1616.67 835.787 1611.06 784.384 1600.42 734.85H1455.24Z"
    fill="#2ADBDB" />
</svg>